<svg width="147" height="147" viewBox="0 0 147 147" fill="none" xmlns="http://www.w3.org/2000/svg">
<path d="M31.2777 15.9461C23.0354 15.9461 16.9383 23.1628 17.2105 30.9894C17.4723 38.5071 17.1324 48.2459 14.6805 56.1862C12.2228 64.1517 8.06548 69.1853 1.27477 69.833V77.1681C8.06548 77.8147 12.2228 82.8494 14.6805 90.815C17.1324 98.7553 17.4712 108.494 17.2105 116.012C16.9372 123.838 23.0354 131.054 31.2777 131.054H115.734C123.976 131.054 130.073 123.837 129.801 116.012C129.539 108.494 129.879 98.7553 132.33 90.815C134.788 82.8506 138.935 77.8158 145.725 77.1681V69.833C138.935 69.1865 134.789 64.1517 132.33 56.1862C129.879 48.2459 129.539 38.5071 129.801 30.9894C130.073 23.1628 123.976 15.9461 115.733 15.9461H31.2777ZM98.018 86.7886C98.018 97.5655 89.9766 104.099 76.6329 104.099H52.0311C51.8816 104.099 51.7381 104.04 51.6324 103.934C51.5266 103.828 51.4672 103.685 51.4672 103.535V43.4419C51.4671 43.3678 51.4815 43.2943 51.5098 43.2258C51.5381 43.1573 51.5796 43.095 51.632 43.0425C51.6844 42.99 51.7466 42.9484 51.8151 42.9199C51.8835 42.8915 51.957 42.8769 52.0311 42.8769H76.5032C87.6304 42.8769 94.9321 48.9016 94.9321 58.1511C94.9321 64.6432 90.0203 70.4543 83.7613 71.473V71.8129C92.2804 72.7466 98.018 78.6438 98.018 86.7886ZM74.1558 50.6415H61.2037V68.9269H72.1138C80.5457 68.9269 85.1957 65.5333 85.1957 59.4661C85.1957 53.7813 81.198 50.6415 74.1558 50.6415V50.6415ZM61.2037 76.1827V96.3355H74.6347C83.4145 96.3355 88.0656 92.8144 88.0656 86.1948C88.0656 79.5764 83.2847 76.1827 74.0696 76.1827H61.2037Z" fill="#5C469C"/>
</svg>
