<svg width="104" height="125" viewBox="0 0 104 125" fill="none" xmlns="http://www.w3.org/2000/svg">
<path d="M103.723 0L94.2739 112.487L51.7982 125L9.43946 112.505L0 0H103.723Z" fill="#5C469C"/>
<path d="M86.1842 105.324L94.2593 9.19904H51.8617V115.436L86.1842 105.324Z" fill="#826CCF"/>
<path d="M21.6398 50.925L22.8036 64.7231H51.8617V50.925H21.6398Z" fill="#EBEBEB"/>
<path d="M51.8617 22.997H51.8168H19.3013L20.4817 36.7953H51.8617V22.997Z" fill="#EBEBEB"/>
<path d="M51.8617 101.116V86.7602L51.8048 86.7763L37.3432 82.6268L36.4187 71.6221H29.3915H23.3837L25.2029 93.2873L51.8019 101.134L51.8617 101.116Z" fill="#EBEBEB"/>
<path d="M67.8065 64.723L66.2993 82.6182L51.8168 86.7719V101.127L78.437 93.2875L78.6323 90.9563L81.6836 54.6301L82.0005 50.9249L84.3447 22.997H51.8168V36.7953H70.1141L68.9326 50.9249H51.8168V64.723H67.8065Z" fill="white"/>
</svg>
