<svg width="102" height="82" viewBox="0 0 102 82" fill="none" xmlns="http://www.w3.org/2000/svg">
<path fill-rule="evenodd" clip-rule="evenodd" d="M1.6567 8.29934C0 11.5508 0 15.8072 0 24.32V56.7467C0 65.2595 0 69.5159 1.6567 72.7673C3.11398 75.6274 5.43928 77.9527 8.29934 79.41C11.5508 81.0667 15.8072 81.0667 24.32 81.0667H77.0133C85.5261 81.0667 89.7825 81.0667 93.034 79.41C95.8941 77.9527 98.2194 75.6274 99.6766 72.7673C101.333 69.5159 101.333 65.2595 101.333 56.7467V24.32C101.333 15.8072 101.333 11.5508 99.6766 8.29934C98.2194 5.43928 95.8941 3.11398 93.034 1.6567C89.7825 0 85.5261 0 77.0133 0H24.32C15.8072 0 11.5508 0 8.29934 1.6567C5.43928 3.11398 3.11398 5.43928 1.6567 8.29934ZM28.1995 21.1553C25.892 19.5723 22.7382 20.1597 21.1553 22.4672C19.5723 24.7747 20.1597 27.9285 22.4672 29.5114L42.0682 42.9577C47.2495 46.5121 54.0838 46.5121 59.2651 42.9577L78.8662 29.5114C81.1736 27.9285 81.761 24.7747 80.1781 22.4672C78.5951 20.1597 75.4413 19.5723 73.1338 21.1553L53.5328 34.6016C51.8057 35.7864 49.5276 35.7864 47.8005 34.6016L28.1995 21.1553Z" fill="#5C469C"/>
</svg>
