<svg width="81" height="122" viewBox="0 0 81 122" fill="none" xmlns="http://www.w3.org/2000/svg">
<path d="M20.25 121.074C31.428 121.074 40.5 112.034 40.5 100.895V80.716H20.25C9.072 80.716 0 89.7561 0 100.895C0 112.034 9.072 121.074 20.25 121.074Z" fill="#826CCF"/>
<path d="M0 60.5363C0 49.3975 9.072 40.3574 20.25 40.3574H40.5V80.7151H20.25C9.072 80.7151 0 71.675 0 60.5363Z" fill="#4A2FA5"/>
<path d="M0 20.1789C0 9.04014 9.072 0 20.25 0H40.5V40.3578H20.25C9.072 40.3578 0 31.3176 0 20.1789Z" fill="#5C469C"/>
<path d="M40.4999 0H60.75C71.928 0 81 9.04014 81 20.1789C81 31.3176 71.928 40.3578 60.75 40.3578H40.4999V0Z" fill="#8E75E4"/>
<path d="M81 60.5363C81 71.675 71.928 80.7151 60.75 80.7151C49.572 80.7151 40.4999 71.675 40.4999 60.5363C40.4999 49.3975 49.572 40.3574 60.75 40.3574C71.928 40.3574 81 49.3975 81 60.5363Z" fill="#5C469C"/>
</svg>
