<svg width="150" height="150" viewBox="0 0 150 150" fill="none" xmlns="http://www.w3.org/2000/svg">
<path d="M146.176 68.4117L81.5871 3.825C77.8699 0.105472 71.8371 0.105472 68.1141 3.825L54.7031 17.2383L71.7164 34.2516C75.6715 32.9168 80.2043 33.8121 83.3555 36.9633C86.523 40.1344 87.4113 44.7059 86.0437 48.6738L102.441 65.0719C106.407 63.7043 110.986 64.5879 114.152 67.7613C118.582 72.1875 118.582 79.3629 114.152 83.7914C113.1 84.8446 111.85 85.6801 110.474 86.2501C109.098 86.8201 107.624 87.1135 106.135 87.1135C104.646 87.1135 103.171 86.8201 101.796 86.2501C100.42 85.6801 99.1702 84.8446 98.1176 83.7914C96.536 82.2089 95.4579 80.1938 95.019 77.9999C94.58 75.8061 94.7998 73.5313 95.6508 71.4621L80.3601 56.1715L80.3578 96.4149C81.4672 96.9612 82.4801 97.6847 83.3566 98.557C87.784 102.983 87.784 110.156 83.3566 114.592C78.9281 119.018 71.7504 119.018 67.3266 114.592C62.8992 110.157 62.8992 102.984 67.3266 98.557C68.3873 97.4946 69.6489 96.6541 71.0379 96.0844V55.4684C69.6478 54.9002 68.3858 54.059 67.3266 52.9945C63.9727 49.643 63.1652 44.7211 64.8855 40.6008L48.1125 23.8277L3.825 68.1129C2.03826 69.9002 1.03453 72.324 1.03453 74.8512C1.03453 77.3784 2.03826 79.8022 3.825 81.5895L68.4152 146.176C72.1348 149.896 78.1652 149.896 81.8906 146.176L146.177 81.8895C147.964 80.1016 148.967 77.6777 148.967 75.1504C148.967 72.623 147.963 70.1992 146.176 68.4117V68.4117Z" fill="#5C469C"/>
</svg>
