<svg width="89" height="126" viewBox="0 0 89 126" fill="none" xmlns="http://www.w3.org/2000/svg">
<path d="M28.6634 97.0342C28.6634 97.0342 24.0521 99.8223 31.9453 100.766C41.5079 101.9 46.3949 101.738 56.933 99.6636C56.933 99.6636 59.7037 101.47 63.5726 103.034C39.9496 113.561 10.1084 102.425 28.6634 97.0342V97.0342ZM25.7767 83.297C25.7767 83.297 20.6046 87.2778 28.5037 88.1272C38.7187 89.2229 46.7855 89.3126 60.7446 86.5179C60.7446 86.5179 62.6754 88.553 65.7113 89.6661C37.1492 98.35 5.33632 90.3509 25.7767 83.297" fill="#5C469C"/>
<path d="M50.1122 59.9947C55.9332 66.9625 48.5829 73.2328 48.5829 73.2328C48.5829 73.2328 63.3627 65.2998 56.575 55.3654C50.2356 46.1016 45.3737 41.4981 71.6926 25.6276C71.6926 25.6276 30.3809 36.3554 50.1122 59.9944" fill="#5C469C"/>
<path d="M81.3558 107.195C81.3558 107.195 84.7683 110.119 77.5973 112.381C63.9618 116.676 20.8443 117.973 8.86633 112.552C4.56073 110.604 12.6353 107.902 15.175 107.334C17.8238 106.737 19.3377 106.848 19.3377 106.848C14.5493 103.341 -11.6128 113.735 6.04881 116.712C54.214 124.833 93.8491 113.055 81.3558 107.195ZM30.8807 69.0642C30.8807 69.0642 8.94879 74.4808 23.1143 76.4473C29.0953 77.2799 41.0184 77.0917 52.1246 76.1239C61.2012 75.3283 70.3152 73.6354 70.3152 73.6354C70.3152 73.6354 67.1148 75.0606 64.7993 76.7045C42.5274 82.7949 -0.497818 79.9617 11.8886 73.7317C22.3638 68.467 30.8811 69.0642 30.8811 69.0642H30.8807ZM70.2247 91.9301C92.8656 79.6976 82.3973 67.9424 75.0908 69.5263C73.2998 69.9136 72.5014 70.2492 72.5014 70.2492C72.5014 70.2492 73.1663 69.1666 74.436 68.698C88.8905 63.414 100.007 84.2819 69.7698 92.5466C69.7698 92.547 70.1203 92.2215 70.2247 91.9301" fill="#5C469C"/>
<path d="M56.575 0.00036328C56.575 0.00036328 69.1137 13.0423 44.6826 33.0959C25.0916 49.1829 40.2152 58.3551 44.6746 68.8347C33.2388 58.107 24.8463 48.663 30.4768 39.8737C38.7404 26.9709 61.6339 20.7156 56.575 0" fill="#5C469C"/>
<path d="M33.1058 125.077C54.8378 126.524 88.2097 124.275 89 113.583C89 113.583 87.4809 117.636 71.0397 120.855C52.491 124.484 29.6139 124.061 16.0451 121.735C16.0455 121.735 18.8228 124.125 33.1061 125.077" fill="#5C469C"/>
</svg>
