<svg width="120" height="90" viewBox="0 0 120 90" fill="none" xmlns="http://www.w3.org/2000/svg">
<path d="M74.3717 62.9838C78.0395 69.3097 82.8112 73.9594 91.2508 73.9594C98.3405 73.9594 102.87 70.2164 102.87 65.0446C102.87 58.847 98.2162 56.6519 90.4126 53.0462L86.135 51.1076C73.7879 45.5511 65.5854 38.5902 65.5854 23.8746C65.5854 10.3192 75.3631 0 90.6438 0C101.523 0 109.344 3.99946 114.98 14.4713L101.656 23.5083C98.722 17.9518 95.5572 15.7627 90.6438 15.7627C85.6321 15.7627 82.4557 19.1211 82.4557 23.5083C82.4557 28.9304 85.635 31.1255 92.9762 34.4839L97.2538 36.4195C111.792 43.0048 120 49.7184 120 64.8126C120 81.0852 107.899 90 91.6467 90C75.7562 90 65.49 82.0011 60.4668 71.517L74.3717 62.9838ZM13.9281 64.55C16.616 69.5875 19.0612 73.8465 24.9399 73.8465C30.5614 73.8465 34.1078 71.5231 34.1078 62.4892V1.03191H51.218V62.7335C51.218 81.4485 40.8305 89.9664 25.6682 89.9664C11.9685 89.9664 4.03478 82.4774 0 73.4572L13.9281 64.55Z" fill="#5C469C"/>
</svg>
