<svg width="131" height="131" viewBox="0 0 131 131" fill="none" xmlns="http://www.w3.org/2000/svg">
<path d="M64.8767 12.5351C60.5558 12.5555 56.4313 12.9229 52.8002 13.5657C42.1052 15.4549 40.1648 19.4095 40.1648 26.7035V36.3351H65.4365V39.5456H30.6796C23.3354 39.5456 16.9041 43.9597 14.892 52.3601C12.5709 61.9855 12.4685 67.9931 14.892 78.0443C16.6882 85.5266 20.9784 90.8567 28.3236 90.8567H37.0136V79.3103C37.0136 70.9682 44.2299 63.6107 52.8012 63.6107H78.0443C85.0712 63.6107 90.6796 57.8242 90.6796 50.7686V26.7046C90.6796 19.8547 84.9013 14.7099 78.0443 13.5667C73.7008 12.8441 69.1966 12.5156 64.8767 12.5351V12.5351ZM51.2097 20.2815C53.8195 20.2815 55.9523 22.4481 55.9523 25.1131C55.9523 27.7669 53.8205 29.913 51.2097 29.913C48.5897 29.913 46.4681 27.7669 46.4681 25.1131C46.4671 22.4481 48.5897 20.2815 51.2097 20.2815V20.2815Z" fill="url(#paint0_linear_107_34)"/>
<path d="M93.8308 39.5456V50.7686C93.8308 59.4679 86.4538 66.7906 78.0432 66.7906H52.8002C45.8858 66.7906 40.1648 72.7091 40.1648 79.6337V103.7C40.1648 110.548 46.1192 114.577 52.8002 116.541C60.7993 118.892 68.471 119.317 78.0432 116.541C84.4049 114.698 90.6786 110.991 90.6786 103.7V94.0672H65.4365V90.8557H103.316C110.66 90.8557 113.399 85.7334 115.953 78.0433C118.592 70.127 118.478 62.5136 115.953 52.3591C114.138 45.0466 110.671 39.5446 103.316 39.5446H93.8308V39.5456ZM79.6326 100.488C82.2537 100.488 84.3752 102.634 84.3752 105.29C84.3752 107.953 82.2526 110.12 79.6326 110.12C77.0229 110.12 74.8911 107.953 74.8911 105.29C74.8911 102.634 77.0229 100.488 79.6326 100.488V100.488Z" fill="url(#paint1_linear_107_34)"/>
<path opacity="0.444" d="M99.5897 122.4C99.5897 126.026 84.4264 128.966 65.7231 128.966C47.0188 128.966 31.8555 126.026 31.8555 122.4C31.8555 118.773 47.0177 115.833 65.7231 115.833C84.4264 115.833 99.5897 118.772 99.5897 122.4Z" fill="url(#paint2_radial_107_34)"/>
<defs>
<linearGradient id="paint0_linear_107_34" x1="10.5791" y1="15.5467" x2="68.8678" y2="65.2549" gradientUnits="userSpaceOnUse">
<stop stop-color="#826CCF"/>
<stop offset="1" stop-color="#5C469C"/>
</linearGradient>
<linearGradient id="paint1_linear_107_34" x1="90.7982" y1="96.1544" x2="69.895" y2="66.8409" gradientUnits="userSpaceOnUse">
<stop stop-color="#5C469C"/>
<stop offset="0.796875" stop-color="#826CCF"/>
<stop offset="1" stop-color="#826CCF"/>
</linearGradient>
<radialGradient id="paint2_radial_107_34" cx="0" cy="0" r="1" gradientUnits="userSpaceOnUse" gradientTransform="translate(65.5862 122.212) rotate(-90) scale(6.56875 28.8751)">
<stop stop-color="#B8B8B8" stop-opacity="0.498"/>
<stop offset="1" stop-color="#7F7F7F" stop-opacity="0"/>
</radialGradient>
</defs>
</svg>
