<svg width="148" height="148" viewBox="0 0 148 148" fill="none" xmlns="http://www.w3.org/2000/svg">
<path d="M74 86C80.6274 86 86 80.8513 86 74.5C86 68.1487 80.6274 63 74 63C67.3726 63 62 68.1487 62 74.5C62 80.8513 67.3726 86 74 86Z" fill="#5C469C"/>
<path d="M74 100.713C112.66 100.713 144 88.7465 144 73.9854C144 59.2244 112.66 47.2582 74 47.2582C35.3401 47.2582 4 59.2244 4 73.9854C4 88.7465 35.3401 100.713 74 100.713Z" stroke="#5C469C" stroke-width="8"/>
<path d="M50.8534 87.349C70.1834 120.83 96.2164 141.988 109 134.607C121.783 127.227 116.476 94.1023 97.1464 60.6218C77.8164 27.1413 51.7834 5.9831 38.9999 13.3636C26.2164 20.7442 31.5234 53.8686 50.8534 87.349Z" stroke="#5C469C" stroke-width="8"/>
<path d="M50.8535 60.6217C31.5235 94.1022 26.2165 127.227 39 134.607C51.7834 141.988 77.8165 120.829 97.1465 87.349C116.476 53.8685 121.783 20.7441 109 13.3636C96.2165 5.98304 70.1835 27.1412 50.8535 60.6217Z" stroke="#5C469C" stroke-width="8"/>
</svg>
